<svg width="138" height="120" viewBox="0 0 138 120" fill="none" xmlns="http://www.w3.org/2000/svg">
<g clip-path="url(#clip0_137800_11000)">
<path fill-rule="evenodd" clip-rule="evenodd" d="M64.9261 9.16494C67.6408 11.955 67.6408 16.4849 64.9261 19.275L25.3373 60.006L64.932 100.716C66.2391 102.063 66.9726 103.884 66.9726 105.782C66.9726 107.679 66.2391 109.5 64.932 110.847L56.0345 120L2.40897 64.863C1.15741 63.5728 0.455078 61.8285 0.455078 60.0105C0.455078 58.1925 1.15741 56.4483 2.40897 55.158L56.0169 0.00597914L64.9261 9.16494ZM136.156 55.416C137.337 56.6322 137.999 58.2768 137.999 59.991C137.999 61.7052 137.337 63.3498 136.156 64.566L82.2815 119.997L72.9764 110.43C71.777 109.194 71.1038 107.522 71.1038 105.78C71.1038 104.038 71.777 102.366 72.9764 101.13L112.961 59.994L73.3165 19.23C72.0237 17.8975 71.2983 16.0961 71.2983 14.2185C71.2983 12.3409 72.0237 10.5394 73.3165 9.207L82.2639 0L136.156 55.416Z" fill="white"/>
</g>
<defs>
<clipPath id="clip0_137800_11000">
<rect width="138" height="120" fill="white"/>
</clipPath>
</defs>
</svg>
