<svg width="204" height="36" viewBox="0 0 204 36" fill="none"
    xmlns="http://www.w3.org/2000/svg">
    <path fill-rule="evenodd" clip-rule="evenodd" d="M201.278 33.327V33.5533H200.654V35.2329H200.401V33.5533H199.777V33.326L201.278 33.327ZM201.502 33.327H201.86L202.392 34.938L202.921 33.3259H203.278V35.2328H203.039V34.1078C203.039 34.0685 203.039 34.0042 203.041 33.9143C203.043 33.8244 203.044 33.7276 203.044 33.6241L202.515 35.2328H202.266L201.733 33.6241V33.6825C201.733 33.7299 201.734 33.8007 201.737 33.8961L201.741 34.1075V35.2325H201.502V33.327ZM188.321 31.0332C192.544 31.0332 195.441 27.5603 195.441 22.9613C195.441 18.4118 192.544 14.9389 188.321 14.9389C184.144 14.9389 181.249 18.5097 181.249 23.0592C181.249 27.5592 184.144 31.0332 188.321 31.0332ZM189.508 35.6322C185.852 35.6322 182.767 33.7726 181.154 30.2018V35.2418H176.408V1.92604L181.154 0.947266V15.7703C182.767 12.1984 185.852 10.3399 189.508 10.3399C195.629 10.3399 200.519 15.183 200.519 23.0108C200.519 30.789 195.63 35.6322 189.508 35.6322ZM151.794 25.1134V10.7314H156.539V25.5049C156.539 28.7337 158.533 30.9353 161.856 30.9353C165.177 30.9353 167.172 28.7348 167.172 25.5049V10.7314H171.918V25.1134C171.918 31.8162 167.883 35.5827 161.856 35.5827C155.827 35.5827 151.794 31.8162 151.794 25.1134ZM148.466 35.5827C143.578 35.7784 140.872 33.1369 140.872 27.2183V1.92604L145.618 0.947266V27.2183C145.618 29.5662 146.852 30.6417 148.561 30.6417H149.795V35.4364C149.359 35.5333 148.912 35.5824 148.466 35.5827ZM117.373 22.9613C117.373 15.183 122.595 10.3399 129.856 10.3399C133.273 10.3399 136.311 11.4649 138.637 13.8623L135.74 17.5309C133.938 15.6724 131.802 14.9389 129.903 14.9389C125.537 14.9389 122.451 17.6288 122.451 22.9129C122.451 28.197 125.537 30.9848 129.903 30.9848C131.801 30.9848 133.938 30.2018 135.789 28.2454L138.684 31.8657C136.358 34.2619 133.368 35.5827 129.856 35.5827C122.641 35.5827 117.373 30.7395 117.373 22.9613ZM89.182 32.9907L91.3179 28.539C92.8845 29.7124 95.6841 31.0332 97.8201 31.0332C100.478 31.0332 101.523 29.7124 101.523 28.2938C101.57 26.631 100.241 25.9943 97.4405 25.065C92.7419 23.598 90.0837 21.8858 90.0837 17.3847C90.0837 13.275 93.1225 10.3399 98.6275 10.3399C101.475 10.3399 104.085 11.2692 106.174 12.7857L104.038 16.8469C102.804 16.0639 100.715 14.8894 98.3895 14.8894C96.349 14.8894 95.1148 15.7219 95.1148 17.3352C95.1148 18.6559 96.0165 19.5368 99.0071 20.466C104.086 22.032 106.601 23.9884 106.601 28.098C106.601 32.7454 102.947 35.5827 97.8684 35.5827C94.4017 35.5827 91.0809 34.4093 89.182 32.9907ZM85.7603 3.68665H90.8857L87.8962 13.3245H83.9568L85.7603 3.68665ZM67.9092 35.1923H63.1623V20.3198C63.1623 17.2373 61.5957 14.8894 58.4165 14.8894C54.9509 14.8894 52.5308 18.0203 52.5308 22.032V35.1923H47.7839V10.7314H52.5308V15.0851C53.9548 12.0027 56.5647 10.2915 59.6024 10.2915C62.7838 10.2915 65.3937 12.0038 66.8165 14.9378C68.811 11.709 71.468 10.2915 74.6494 10.2915C79.6322 10.2915 83.2864 14.1559 83.2864 20.3682V35.1923H78.5406V20.3198C78.5406 17.2373 76.9741 14.8894 73.7937 14.8894C70.3293 14.8894 67.9092 18.0203 67.9092 22.032V35.1923ZM31.4193 14.9389C27.1957 14.9389 24.2995 18.4118 24.2995 23.0108C24.2995 27.5603 27.1957 31.0332 31.4193 31.0332C35.5969 31.0332 38.492 27.4624 38.492 22.9129C38.492 18.4129 35.5958 14.9389 31.4193 14.9389ZM38.5863 30.2018C36.9737 33.7737 33.8877 35.6322 30.2334 35.6322C24.1108 35.6322 19.2213 30.789 19.2213 22.9613C19.2213 15.183 24.1108 10.3399 30.2334 10.3399C33.8877 10.3399 36.9726 12.1984 38.5863 15.7703V10.7314H43.3332V35.1912H38.5863V30.2018ZM0 32.9907L2.13595 28.539C3.70253 29.7124 6.50218 31.0332 8.63813 31.0332C11.2963 31.0332 12.3407 29.7124 12.3407 28.2938C12.3878 26.631 11.0593 25.9943 8.25965 25.065C3.55881 23.598 0.900673 21.8858 0.900673 17.3847C0.900673 13.275 3.93948 10.3399 9.44446 10.3399C12.2924 10.3399 14.9023 11.2692 16.991 12.7857L14.8551 16.8469C13.6209 16.0639 11.5321 14.8894 9.20638 14.8894C7.1659 14.8894 5.93171 15.7219 5.93171 17.3352C5.93171 18.6559 6.83349 19.5368 9.82402 20.466C14.9033 22.032 17.4178 23.9884 17.4178 28.098C17.4178 32.7454 13.7635 35.5827 8.68529 35.5827C5.21974 35.5827 1.89897 34.4093 0 32.9907Z" fill="white"/>
</svg>
